<svg xmlns="http://www.w3.org/2000/svg" xmlns:xlink="http://www.w3.org/1999/xlink" viewBox="0 0 674.04 464.17"><defs><style>.cls-1{fill:#fff;}.cls-2{fill:url(#linear-gradient);}.cls-3{fill:url(#linear-gradient-2);}.cls-4{fill:url(#linear-gradient-3);}.cls-5{fill:url(#linear-gradient-4);}.cls-6{fill:url(#linear-gradient-5);}.cls-7{fill:url(#linear-gradient-6);}.cls-8{fill:#21409a;}.cls-9{fill:#034ea2;}.cls-10{fill:#6d6e71;}.cls-11{fill:#808285;}</style><linearGradient id="linear-gradient" x1="320.52" y1="-10.87" x2="481.18" y2="103.44" gradientUnits="userSpaceOnUse"><stop offset="0" stop-color="#21409a"/><stop offset="0.01" stop-color="#21489f"/><stop offset="0.06" stop-color="#2366b4"/><stop offset="0.12" stop-color="#257fc4"/><stop offset="0.18" stop-color="#2692d1"/><stop offset="0.25" stop-color="#26a0da"/><stop offset="0.34" stop-color="#27a8df"/><stop offset="0.51" stop-color="#27aae1"/><stop offset="0.72" stop-color="#27a8e0"/><stop offset="0.8" stop-color="#28a1db"/><stop offset="0.85" stop-color="#2896d4"/><stop offset="0.9" stop-color="#2985c9"/><stop offset="0.93" stop-color="#2a6fba"/><stop offset="0.97" stop-color="#2c54a9"/><stop offset="1" stop-color="#2e3594"/><stop offset="1" stop-color="#2e3192"/></linearGradient><linearGradient id="linear-gradient-2" x1="271.3" y1="58.31" x2="431.95" y2="172.62" xlink:href="#linear-gradient"/><linearGradient id="linear-gradient-3" x1="250.52" y1="87.51" x2="411.17" y2="201.82" xlink:href="#linear-gradient"/><linearGradient id="linear-gradient-4" x1="230.08" y1="116.24" x2="390.73" y2="230.55" xlink:href="#linear-gradient"/><linearGradient id="linear-gradient-5" x1="203.09" y1="154.18" x2="363.74" y2="268.49" xlink:href="#linear-gradient"/><linearGradient id="linear-gradient-6" x1="194.83" y1="165.78" x2="355.49" y2="280.09" xlink:href="#linear-gradient"/></defs><title>logo-dgbits-big</title><g id="Layer_2" data-name="Layer 2"><g id="Layer_1-2" data-name="Layer 1"><rect class="cls-1" width="674.04" height="464.17"/><path class="cls-2" d="M524.06,125.94H515.2a4.86,4.86,0,0,0,0,9.72h8.86a4.86,4.86,0,1,0,0-9.72Z"/><path class="cls-3" d="M501.64,157h-26V135.66h19a4.86,4.86,0,1,0,0-9.72h-19V105.33H522.8a4.87,4.87,0,0,0,0-9.73H443.64a4.21,4.21,0,0,0-.62.05H433v61.88H410.35q-14.28,0-21.08-6.79T382,129q-.45-6.57-.45-17T382,95.22q.47-14.5,7.82-21.42t21.64-6.91h64.13V46.78h26a4.87,4.87,0,0,0,0-9.73H475.39A5.69,5.69,0,0,0,474,34.6a5.32,5.32,0,0,0-4.08-1.7H410.35q-33.54,0-52.12,16A51.78,51.78,0,0,0,348.12,60.6,51.83,51.83,0,0,0,338,48.88q-18.58-16-52.12-16H226.29a5.32,5.32,0,0,0-4.08,1.7,5.81,5.81,0,0,0-1.57,3.86H206.42a4.87,4.87,0,0,0,0,9.73h14.2V66.68H192.31a4.87,4.87,0,0,0,0,9.73h28.31V97H150a4.87,4.87,0,0,0,0,9.73h70.64v17.08H192.31a4.87,4.87,0,0,0,0,9.73h28.31v17.78h-14.2a4.87,4.87,0,0,0,0,9.73h14.2v18.73H195.48a4.87,4.87,0,0,0-4.87,4.86h0a4.87,4.87,0,0,0,4.87,4.87H222l.28.3a5.43,5.43,0,0,0,4,1.7H287q44.73,0,61.1-26.7,16.36,26.7,61.1,26.7h60.72a5.31,5.31,0,0,0,1.75-.28,4.68,4.68,0,0,0,1.19.15h8.85a4.86,4.86,0,1,0,0-9.72h-6.12v-15h26a4.86,4.86,0,1,0,0-9.72ZM314.21,129q-.45,15-7.25,21.76t-21.08,6.79H263.22V66.89h21.53q14.28,0,21.64,6.91t7.82,21.42q.45,6.34.45,16.77T314.21,129Z"/><path class="cls-4" d="M184,48.19h8.86a4.87,4.87,0,0,0,0-9.73H184a4.87,4.87,0,0,0,0,9.73Z"/><path class="cls-5" d="M162.83,76.41h8.86a4.87,4.87,0,0,0,0-9.73h-8.86a4.87,4.87,0,0,0,0,9.73Z"/><path class="cls-6" d="M176.55,128.68a4.87,4.87,0,0,0-4.86-4.86h-8.86a4.87,4.87,0,0,0,0,9.73h8.86A4.87,4.87,0,0,0,176.55,128.68Z"/><path class="cls-7" d="M185.8,151.33h-8.86a4.87,4.87,0,0,0,0,9.73h8.86a4.87,4.87,0,0,0,0-9.73Z"/><path class="cls-1" d="M186.16,60.08H230a4.87,4.87,0,1,0,0-9.73H186.16a4.87,4.87,0,1,0,0,9.73Z"/><path class="cls-1" d="M264.61,78.57H185.45a4.86,4.86,0,1,0,0,9.72h79.16a4.86,4.86,0,1,0,0-9.72Z"/><path class="cls-1" d="M234.91,113.76A4.87,4.87,0,0,0,230,108.9H150.88a4.87,4.87,0,0,0,0,9.73H230A4.87,4.87,0,0,0,234.91,113.76Z"/><path class="cls-1" d="M174.24,140.57a4.86,4.86,0,0,0,4.86,4.86h72.11a4.86,4.86,0,0,0,0-9.72H179.1A4.86,4.86,0,0,0,174.24,140.57Z"/><path class="cls-1" d="M256.14,163.22H177a4.87,4.87,0,0,0,0,9.73h79.16a4.87,4.87,0,1,0,0-9.73Z"/><path class="cls-1" d="M456.85,60.78h43.88a4.86,4.86,0,1,0,0-9.72H456.85a4.86,4.86,0,1,0,0,9.72Z"/><path class="cls-1" d="M521.9,108.9H442.74a4.87,4.87,0,0,0,0,9.73H521.9a4.87,4.87,0,0,0,0-9.73Z"/><path class="cls-1" d="M477.23,168.86H454.5a4.87,4.87,0,0,0,0,9.73h22.73a4.87,4.87,0,0,0,0-9.73Z"/><path class="cls-1" d="M486.63,141.67H463.9a4.86,4.86,0,1,0,0,9.72h22.73a4.86,4.86,0,1,0,0-9.72Z"/><path class="cls-8" d="M438.44,354c.89-.4,1.78-.8,2.67-1.22V354Z"/><path class="cls-9" d="M154.08,343.11A48.85,48.85,0,0,1,134,362.77q-13.08,7.05-30.79,7.05H61.4V259.05h41.83q17.86,0,30.87,6.89a48.12,48.12,0,0,1,20,19.43q7,12.54,7,28.83T154.08,343.11Zm-28.83-5.57q8.69-8.3,8.69-23.34t-8.69-23.35q-8.7-8.3-24.37-8.3H88.19v63.3h12.69Q116.56,345.85,125.25,337.54Z"/><path class="cls-9" d="M262.42,268.13q13.47,10.2,16.76,27.58H250.82a21.88,21.88,0,0,0-8.61-9.48,26.38,26.38,0,0,0-14-3.52q-12.69,0-20.37,8.54t-7.67,23.11q0,15.83,8.06,24.28t23,8.46A27.7,27.7,0,0,0,248,341.85q7.22-5.25,10.19-15H224.35V307.62h56.24V334.1a54.13,54.13,0,0,1-10,18,51.83,51.83,0,0,1-17.63,13.47,55.8,55.8,0,0,1-24.52,5.17q-16.77,0-29.3-7.13a48.75,48.75,0,0,1-19.35-20Q173,330.81,173,314.36t6.82-29.3a48.94,48.94,0,0,1,19.27-20Q211.51,258,228.1,258,249,258,262.42,268.13Z"/><path class="cls-9" d="M378,322.5a26.6,26.6,0,0,1,5.88,17.08q0,14.26-9.48,22.25t-27.19,8H295.63V259.05h50.3q16.92,0,26.16,7.36t9.25,21q0,10-5.33,16.68a24.56,24.56,0,0,1-13.94,8.7A27.76,27.76,0,0,1,378,322.5Zm-55.54-18.17H340q13.93,0,13.94-11.91t-14.26-11.91H322.43Zm34,31.49a11.65,11.65,0,0,0-3.92-9.32q-3.92-3.37-11.12-3.37h-19V348h19.11Q356.42,348,356.43,335.82Z"/><path class="cls-9" d="M424.74,259.05V369.82H398V259.05Z"/><path class="cls-9" d="M522.82,259.05v21.31H492.74v89.46H465.79V280.36H436V259.05Z"/><path class="cls-9" d="M609.23,354.78a31.51,31.51,0,0,1-13.16,11.75q-8.7,4.39-21.08,4.39-18.65,0-30.71-9.09t-13.16-25.38h28.52a15,15,0,0,0,4.46,9.87,13.74,13.74,0,0,0,9.79,3.6q5.18,0,8.15-2.82a9.84,9.84,0,0,0,3-7.52,9.74,9.74,0,0,0-2.74-7.05,21.47,21.47,0,0,0-6.82-4.62q-4.08-1.8-11.28-4.31a139.08,139.08,0,0,1-17.16-7,31.56,31.56,0,0,1-11.43-10q-4.79-6.66-4.78-17.31a29.16,29.16,0,0,1,5-17.08,31.85,31.85,0,0,1,13.87-11A50.54,50.54,0,0,1,570,257.32q18.48,0,29.38,8.78t12.3,24.13h-29a14.92,14.92,0,0,0-4-8.7,11.75,11.75,0,0,0-8.69-3.21,11.2,11.2,0,0,0-7.6,2.51c-1.94,1.67-2.9,4.12-2.9,7.36a9.34,9.34,0,0,0,2.59,6.66,19.49,19.49,0,0,0,6.5,4.46q3.91,1.74,11.28,4.39a123.76,123.76,0,0,1,17.39,7.13,33.32,33.32,0,0,1,11.6,10.26q4.85,6.75,4.85,17.55A30.61,30.61,0,0,1,609.23,354.78Z"/><path class="cls-10" d="M297.93,401.46a6,6,0,0,1-2.49-1.82,4.28,4.28,0,0,1-.89-2.46.53.53,0,0,1,.15-.37.52.52,0,0,1,.39-.17h2.33a.83.83,0,0,1,.46.13,1.45,1.45,0,0,1,.33.36,2.63,2.63,0,0,0,1.16,1.46,4.6,4.6,0,0,0,2.5.59,4.93,4.93,0,0,0,2.7-.6,1.89,1.89,0,0,0,.91-1.66,1.55,1.55,0,0,0-.46-1.15,3.94,3.94,0,0,0-1.4-.8c-.62-.23-1.54-.51-2.77-.84a10.84,10.84,0,0,1-4.43-1.89,4.15,4.15,0,0,1-1.41-3.38,4.48,4.48,0,0,1,.82-2.65,5.43,5.43,0,0,1,2.34-1.83,8.89,8.89,0,0,1,3.55-.66,8.35,8.35,0,0,1,3.67.74,6.08,6.08,0,0,1,2.36,1.85,4.14,4.14,0,0,1,.85,2.22.55.55,0,0,1-.15.37.5.5,0,0,1-.38.17h-2.44a.76.76,0,0,1-.76-.47,2,2,0,0,0-1-1.37,4,4,0,0,0-2.15-.55,4,4,0,0,0-2.22.54,1.77,1.77,0,0,0-.8,1.56,1.66,1.66,0,0,0,.41,1.16,3.4,3.4,0,0,0,1.28.8,23.14,23.14,0,0,0,2.53.78,17.16,17.16,0,0,1,3.62,1.16,4.67,4.67,0,0,1,2,1.61,4.47,4.47,0,0,1,.64,2.48,4.71,4.71,0,0,1-.91,2.88,5.71,5.71,0,0,1-2.56,1.86,10.71,10.71,0,0,1-3.83.64A10.1,10.1,0,0,1,297.93,401.46Z"/><path class="cls-10" d="M313,400.61a5.92,5.92,0,0,1-1.76-4.25l0-1.13,0-1.12a5.89,5.89,0,0,1,1.79-4.24,7.66,7.66,0,0,1,9.24,0,5.89,5.89,0,0,1,1.79,4.24c0,.2,0,.58,0,1.12s0,.93,0,1.13a5.92,5.92,0,0,1-1.76,4.25,7.79,7.79,0,0,1-9.3,0Zm6.75-1.89a4,4,0,0,0,.78-2.49c0-.17,0-.5,0-1s0-.82,0-1a4,4,0,0,0-.79-2.5,2.62,2.62,0,0,0-2.08-.86,2.65,2.65,0,0,0-2.1.86,3.9,3.9,0,0,0-.79,2.5l0,1,0,1a3.87,3.87,0,0,0,.79,2.49,2.67,2.67,0,0,0,2.1.84A2.62,2.62,0,0,0,319.78,398.72Z"/><path class="cls-10" d="M328.42,401.71a.58.58,0,0,1-.18-.43v-10h-2.08a.58.58,0,0,1-.43-.18.6.6,0,0,1-.18-.44v-1.51a.61.61,0,0,1,.61-.61h2.08v-1a4.46,4.46,0,0,1,1.25-3.46,5.49,5.49,0,0,1,3.79-1.14h1.77a.61.61,0,0,1,.61.61v1.51a.6.6,0,0,1-.18.44.58.58,0,0,1-.43.18h-1.64a1.76,1.76,0,0,0-1.41.48,2.35,2.35,0,0,0-.41,1.51v.9h3.2a.6.6,0,0,1,.44.18.58.58,0,0,1,.18.43v1.51a.61.61,0,0,1-.62.62h-3.2v10a.58.58,0,0,1-.61.61h-2.13A.58.58,0,0,1,328.42,401.71Z"/><path class="cls-10" d="M340,400.68a5,5,0,0,1-1.17-3.58v-5.78h-2a.58.58,0,0,1-.43-.18.6.6,0,0,1-.18-.44v-1.51a.61.61,0,0,1,.61-.61h2v-4.25a.61.61,0,0,1,.17-.45.63.63,0,0,1,.44-.16h2.12a.57.57,0,0,1,.62.61v4.25h3.2a.61.61,0,0,1,.61.61v1.51a.6.6,0,0,1-.18.44.58.58,0,0,1-.43.18h-3.2v5.5a3,3,0,0,0,.38,1.67,1.43,1.43,0,0,0,1.26.56h1.79a.57.57,0,0,1,.45.17.6.6,0,0,1,.16.44v1.62a.6.6,0,0,1-.16.43.58.58,0,0,1-.45.18h-2.1A4.69,4.69,0,0,1,340,400.68Z"/><path class="cls-10" d="M351.25,401.25l-3.66-11.88a.72.72,0,0,1,0-.23.56.56,0,0,1,.15-.39.47.47,0,0,1,.38-.17h1.95a.72.72,0,0,1,.45.15.67.67,0,0,1,.24.34l2.48,8.42,2.64-8.35a.86.86,0,0,1,.27-.39.69.69,0,0,1,.5-.17h1.3a.68.68,0,0,1,.5.17.75.75,0,0,1,.25.39l2.66,8.35,2.48-8.42a.79.79,0,0,1,.23-.34.71.71,0,0,1,.46-.15h1.92a.51.51,0,0,1,.4.17.54.54,0,0,1,.17.39l-.05.23-3.67,11.88a.92.92,0,0,1-.29.47.73.73,0,0,1-.52.17h-1.69a.8.8,0,0,1-.85-.64l-2.64-8-2.66,8a.83.83,0,0,1-.87.64H352.1A.83.83,0,0,1,351.25,401.25Z"/><path class="cls-10" d="M370.52,401.62a4.32,4.32,0,0,1-1.72-1.42,3.35,3.35,0,0,1-.63-2,3.39,3.39,0,0,1,1.41-2.82,8.48,8.48,0,0,1,3.87-1.45l3.5-.52v-.53a2.25,2.25,0,0,0-.56-1.67,2.46,2.46,0,0,0-1.79-.56,2.58,2.58,0,0,0-1.36.31,4.16,4.16,0,0,0-.83.62q-.32.33-.42.42a.39.39,0,0,1-.39.31h-2a.57.57,0,0,1-.4-.15.53.53,0,0,1-.17-.41,2.75,2.75,0,0,1,.63-1.45,5.05,5.05,0,0,1,1.86-1.41,7.14,7.14,0,0,1,3.1-.6,6.12,6.12,0,0,1,4.4,1.36,4.76,4.76,0,0,1,1.38,3.56v8a.61.61,0,0,1-.17.43.57.57,0,0,1-.44.18h-2.13a.61.61,0,0,1-.61-.61v-1a4.31,4.31,0,0,1-1.59,1.34,5.58,5.58,0,0,1-2.56.53A5.41,5.41,0,0,1,370.52,401.62Zm5.56-2.85a3.66,3.66,0,0,0,.9-2.66v-.52l-2.56.41c-2,.31-2.94,1-2.94,2a1.43,1.43,0,0,0,.67,1.27,2.91,2.91,0,0,0,1.63.45A3.07,3.07,0,0,0,376.08,398.77Z"/><path class="cls-10" d="M383.87,401.71a.58.58,0,0,1-.18-.43V389.22a.62.62,0,0,1,.18-.46.58.58,0,0,1,.43-.18h2.1a.62.62,0,0,1,.64.64v1a4.33,4.33,0,0,1,3.69-1.69h1.07a.57.57,0,0,1,.45.17.6.6,0,0,1,.17.44v1.87a.64.64,0,0,1-.17.44.58.58,0,0,1-.45.18h-2a2.55,2.55,0,0,0-1.89.69,2.52,2.52,0,0,0-.7,1.89v7a.61.61,0,0,1-.17.43.6.6,0,0,1-.44.18H384.3A.58.58,0,0,1,383.87,401.71Z"/><path class="cls-10" d="M395.45,400.51a6.55,6.55,0,0,1-1.78-4.66l0-.64a7.18,7.18,0,0,1,1.67-5,6.83,6.83,0,0,1,9.35,0,7.06,7.06,0,0,1,1.65,4.91v.54a.58.58,0,0,1-.18.43.62.62,0,0,1-.46.18h-8.5v.21a4,4,0,0,0,.78,2.37,2.42,2.42,0,0,0,2,.93,2.87,2.87,0,0,0,2.38-1.18,1.3,1.3,0,0,1,.36-.34,1,1,0,0,1,.43-.07h2.26a.65.65,0,0,1,.39.13.45.45,0,0,1,.17.36,2.38,2.38,0,0,1-.73,1.45,6.1,6.1,0,0,1-2.09,1.44,7.53,7.53,0,0,1-3.15.62A6.23,6.23,0,0,1,395.45,400.51Zm7.34-6.45V394a3.67,3.67,0,0,0-.76-2.42,2.78,2.78,0,0,0-4.11,0,3.72,3.72,0,0,0-.74,2.42v.05Z"/><path class="cls-10" d="M415.35,401.71a.57.57,0,0,1-.17-.43V384.61a.65.65,0,0,1,.16-.46.58.58,0,0,1,.45-.18h6.86a7.4,7.4,0,0,1,4.86,1.46,5.19,5.19,0,0,1,1.77,4.25,5.06,5.06,0,0,1-1.77,4.19,7.56,7.56,0,0,1-4.86,1.42h-3.76v6a.57.57,0,0,1-.18.44.63.63,0,0,1-.46.17h-2.46A.6.6,0,0,1,415.35,401.71Zm7.17-9.29a3.33,3.33,0,0,0,2.27-.7,2.65,2.65,0,0,0,.78-2.07,2.76,2.76,0,0,0-.76-2.07,3.15,3.15,0,0,0-2.29-.74h-3.68v5.58Z"/><path class="cls-10" d="M431.94,401.71a.58.58,0,0,1-.18-.43V389.22a.62.62,0,0,1,.18-.46.6.6,0,0,1,.44-.18h2.1a.62.62,0,0,1,.64.64v1a4.33,4.33,0,0,1,3.68-1.69h1.08a.57.57,0,0,1,.45.17.6.6,0,0,1,.16.44v1.87a.63.63,0,0,1-.16.44.58.58,0,0,1-.45.18h-2a2.39,2.39,0,0,0-2.59,2.58v7a.61.61,0,0,1-.61.61h-2.28A.6.6,0,0,1,431.94,401.71Z"/><path class="cls-10" d="M442.57,386.22a.58.58,0,0,1-.18-.43v-1.87a.62.62,0,0,1,.18-.46.58.58,0,0,1,.43-.18h2.36a.63.63,0,0,1,.46.18.62.62,0,0,1,.18.46v1.87a.59.59,0,0,1-.19.43.64.64,0,0,1-.45.18H443A.58.58,0,0,1,442.57,386.22Zm.1,15.49a.58.58,0,0,1-.18-.43V389.19a.6.6,0,0,1,.61-.61h2.18a.6.6,0,0,1,.44.18.61.61,0,0,1,.17.43v12.09a.61.61,0,0,1-.17.43.6.6,0,0,1-.44.18H443.1A.58.58,0,0,1,442.67,401.71Z"/><path class="cls-10" d="M453.4,401.72a1.15,1.15,0,0,1-.34-.47l-4.81-11.88a.67.67,0,0,1,0-.23.54.54,0,0,1,.17-.39.49.49,0,0,1,.37-.17h2.13a.68.68,0,0,1,.69.49L455,398l3.38-8.93a.74.74,0,0,1,.21-.34.64.64,0,0,1,.45-.15h2.13a.47.47,0,0,1,.38.17.56.56,0,0,1,.15.39.72.72,0,0,1,0,.23l-4.79,11.88a1,1,0,0,1-.92.64H454A.84.84,0,0,1,453.4,401.72Z"/><path class="cls-10" d="M464.9,401.62a4.36,4.36,0,0,1-1.71-1.42,3.35,3.35,0,0,1-.63-2,3.39,3.39,0,0,1,1.41-2.82,8.48,8.48,0,0,1,3.86-1.45l3.51-.52v-.53a2.29,2.29,0,0,0-.56-1.67,2.48,2.48,0,0,0-1.79-.56,2.56,2.56,0,0,0-1.36.31,4.16,4.16,0,0,0-.83.62l-.42.42a.39.39,0,0,1-.39.31h-2a.56.56,0,0,1-.39-.15.53.53,0,0,1-.17-.41,2.75,2.75,0,0,1,.63-1.45,5.09,5.09,0,0,1,1.85-1.41,7.17,7.17,0,0,1,3.1-.6,6.14,6.14,0,0,1,4.41,1.36,4.76,4.76,0,0,1,1.38,3.56v8a.61.61,0,0,1-.17.43.58.58,0,0,1-.45.18h-2.12a.6.6,0,0,1-.44-.18.58.58,0,0,1-.18-.43v-1a4.2,4.2,0,0,1-1.58,1.34,5.61,5.61,0,0,1-2.56.53A5.48,5.48,0,0,1,464.9,401.62Zm5.57-2.85a3.66,3.66,0,0,0,.9-2.66v-.52l-2.56.41c-2,.31-2.95,1-2.95,2a1.44,1.44,0,0,0,.68,1.27,2.89,2.89,0,0,0,1.63.45A3.08,3.08,0,0,0,470.47,398.77Z"/><path class="cls-10" d="M480.48,400.68a5,5,0,0,1-1.18-3.58v-5.78h-2a.57.57,0,0,1-.43-.18.6.6,0,0,1-.18-.44v-1.51a.58.58,0,0,1,.18-.43.57.57,0,0,1,.43-.18h2v-4.25a.58.58,0,0,1,.18-.45.63.63,0,0,1,.44-.16H482a.57.57,0,0,1,.62.61v4.25h3.2a.61.61,0,0,1,.61.61v1.51a.6.6,0,0,1-.18.44.58.58,0,0,1-.43.18h-3.2v5.5a3,3,0,0,0,.38,1.67,1.42,1.42,0,0,0,1.25.56h1.8a.58.58,0,0,1,.61.61v1.62a.6.6,0,0,1-.61.61H484A4.67,4.67,0,0,1,480.48,400.68Z"/><path class="cls-10" d="M490.2,400.51a6.51,6.51,0,0,1-1.78-4.66l0-.64a7.19,7.19,0,0,1,1.68-5,6.82,6.82,0,0,1,9.34,0,7.06,7.06,0,0,1,1.65,4.91v.54a.58.58,0,0,1-.18.43.62.62,0,0,1-.46.18h-8.5v.21a4.09,4.09,0,0,0,.78,2.37,2.42,2.42,0,0,0,2,.93,2.89,2.89,0,0,0,2.39-1.18,1.47,1.47,0,0,1,.35-.34,1.11,1.11,0,0,1,.44-.07h2.25a.66.66,0,0,1,.4.13.44.44,0,0,1,.16.36,2.41,2.41,0,0,1-.72,1.45,6.2,6.2,0,0,1-2.09,1.44,7.6,7.6,0,0,1-3.15.62A6.21,6.21,0,0,1,490.2,400.51Zm7.33-6.45V394a3.62,3.62,0,0,0-.76-2.42,2.52,2.52,0,0,0-2.06-.91,2.47,2.47,0,0,0-2,.91,3.67,3.67,0,0,0-.75,2.42v.05Z"/><path class="cls-10" d="M510.1,401.71a.58.58,0,0,1-.18-.43V384.59a.58.58,0,0,1,.18-.45.61.61,0,0,1,.43-.17h2.41a.58.58,0,0,1,.62.62v14.23h8.11a.62.62,0,0,1,.46.18.58.58,0,0,1,.18.43v1.85a.58.58,0,0,1-.18.43.62.62,0,0,1-.46.18H510.53A.58.58,0,0,1,510.1,401.71Z"/><path class="cls-10" d="M524.56,386.22a.58.58,0,0,1-.18-.43v-1.87a.62.62,0,0,1,.18-.46.6.6,0,0,1,.44-.18h2.35a.6.6,0,0,1,.46.18.62.62,0,0,1,.18.46v1.87a.56.56,0,0,1-.19.43.64.64,0,0,1-.45.18H525A.6.6,0,0,1,524.56,386.22Zm.11,15.49a.58.58,0,0,1-.18-.43V389.19a.6.6,0,0,1,.61-.61h2.18a.61.61,0,0,1,.61.61v12.09a.61.61,0,0,1-.61.61H525.1A.58.58,0,0,1,524.67,401.71Z"/><path class="cls-10" d="M531.45,401.71a.58.58,0,0,1-.18-.43V389.19a.57.57,0,0,1,.18-.44.58.58,0,0,1,.44-.17h2a.59.59,0,0,1,.45.17.6.6,0,0,1,.16.44v.87a4.49,4.49,0,0,1,3.71-1.74,4,4,0,0,1,4,2.28,4.61,4.61,0,0,1,1.74-1.65,4.9,4.9,0,0,1,2.44-.63,4.48,4.48,0,0,1,3.43,1.44,5.93,5.93,0,0,1,1.33,4.17v7.35a.61.61,0,0,1-.17.43.58.58,0,0,1-.45.18H548.4a.6.6,0,0,1-.44-.18.58.58,0,0,1-.18-.43v-7.15a3.29,3.29,0,0,0-.68-2.33,2.34,2.34,0,0,0-1.77-.71,2.28,2.28,0,0,0-1.71.73,3.23,3.23,0,0,0-.7,2.31v7.15a.61.61,0,0,1-.17.43.57.57,0,0,1-.44.18h-2.16a.61.61,0,0,1-.61-.61v-7.15a3.27,3.27,0,0,0-.69-2.31,2.32,2.32,0,0,0-1.77-.73,2.27,2.27,0,0,0-1.7.73,3.23,3.23,0,0,0-.7,2.31v7.15a.61.61,0,0,1-.17.43.58.58,0,0,1-.45.18h-2.17A.59.59,0,0,1,531.45,401.71Z"/><path class="cls-10" d="M554.46,386.22a.58.58,0,0,1-.18-.43v-1.87a.62.62,0,0,1,.18-.46.6.6,0,0,1,.44-.18h2.35a.64.64,0,0,1,.47.18.65.65,0,0,1,.17.46v1.87a.56.56,0,0,1-.19.43.63.63,0,0,1-.45.18H554.9A.6.6,0,0,1,554.46,386.22Zm.11,15.49a.58.58,0,0,1-.18-.43V389.19a.6.6,0,0,1,.61-.61h2.18a.61.61,0,0,1,.61.61v12.09a.61.61,0,0,1-.61.61H555A.58.58,0,0,1,554.57,401.71Z"/><path class="cls-10" d="M563.71,400.68a5,5,0,0,1-1.18-3.58v-5.78h-2a.61.61,0,0,1-.62-.62v-1.51a.58.58,0,0,1,.18-.43.6.6,0,0,1,.44-.18h2v-4.25a.58.58,0,0,1,.18-.45.6.6,0,0,1,.43-.16h2.13a.62.62,0,0,1,.45.16.61.61,0,0,1,.16.45v4.25h3.2a.6.6,0,0,1,.44.18.58.58,0,0,1,.18.43v1.51a.61.61,0,0,1-.62.62h-3.2v5.5a2.94,2.94,0,0,0,.39,1.67,1.4,1.4,0,0,0,1.25.56h1.79a.57.57,0,0,1,.45.17.6.6,0,0,1,.17.44v1.62a.61.61,0,0,1-.17.43.58.58,0,0,1-.45.18h-2.1A4.65,4.65,0,0,1,563.71,400.68Z"/><path class="cls-10" d="M573.42,400.51a6.55,6.55,0,0,1-1.78-4.66l0-.64a7.18,7.18,0,0,1,1.67-5,6.83,6.83,0,0,1,9.35,0,7.06,7.06,0,0,1,1.65,4.91v.54a.58.58,0,0,1-.18.43.62.62,0,0,1-.46.18h-8.5v.21a4,4,0,0,0,.78,2.37,2.42,2.42,0,0,0,2,.93,2.87,2.87,0,0,0,2.38-1.18,1.3,1.3,0,0,1,.36-.34,1,1,0,0,1,.43-.07h2.26a.65.65,0,0,1,.39.13.45.45,0,0,1,.17.36,2.38,2.38,0,0,1-.73,1.45,6.1,6.1,0,0,1-2.09,1.44,7.53,7.53,0,0,1-3.15.62A6.23,6.23,0,0,1,573.42,400.51Zm7.34-6.45V394a3.67,3.67,0,0,0-.76-2.42,2.78,2.78,0,0,0-4.11,0,3.72,3.72,0,0,0-.74,2.42v.05Z"/><path class="cls-10" d="M588,400.5a7.28,7.28,0,0,1-1.51-4.42l0-.85,0-.84A7.09,7.09,0,0,1,588,390a5.47,5.47,0,0,1,7.9,0v-5.68a.58.58,0,0,1,.18-.45.6.6,0,0,1,.43-.16h2.23a.56.56,0,0,1,.61.61v16.95a.6.6,0,0,1-.16.43.58.58,0,0,1-.45.18h-2.07a.6.6,0,0,1-.44-.18.58.58,0,0,1-.18-.43v-.95a4.84,4.84,0,0,1-4.07,1.82A4.91,4.91,0,0,1,588,400.5Zm7.11-2.05a4.16,4.16,0,0,0,.78-2.32c0-.2,0-.53,0-1s0-.8,0-1a3.62,3.62,0,0,0-.79-2.18,2.67,2.67,0,0,0-2.15-.89c-1.83,0-2.8,1.12-2.92,3.38l0,.76,0,.77c.12,2.26,1.09,3.38,2.92,3.38A2.54,2.54,0,0,0,595.08,398.45Z"/><rect class="cls-11" x="60.35" y="378.85" width="208.66" height="22.98"/></g></g></svg>