<svg xmlns="http://www.w3.org/2000/svg" xmlns:xlink="http://www.w3.org/1999/xlink" viewBox="0 0 828.77 205.28"><defs><style>.cls-1{fill:#fff;}.cls-2{fill:#21409a;}.cls-3{fill:#034ea2;}.cls-4{fill:#6d6e71;}.cls-5{fill:#808285;}.cls-6{fill:url(#linear-gradient);}.cls-7{fill:url(#linear-gradient-2);}.cls-8{fill:url(#linear-gradient-3);}.cls-9{fill:url(#linear-gradient-4);}.cls-10{fill:url(#linear-gradient-5);}.cls-11{fill:url(#linear-gradient-6);}</style><linearGradient id="linear-gradient" x1="168.07" y1="3.06" x2="291.02" y2="90.55" gradientUnits="userSpaceOnUse"><stop offset="0" stop-color="#21409a"/><stop offset="0.01" stop-color="#21489f"/><stop offset="0.06" stop-color="#2366b4"/><stop offset="0.12" stop-color="#257fc4"/><stop offset="0.18" stop-color="#2692d1"/><stop offset="0.25" stop-color="#26a0da"/><stop offset="0.34" stop-color="#27a8df"/><stop offset="0.51" stop-color="#27aae1"/><stop offset="0.72" stop-color="#27a8e0"/><stop offset="0.8" stop-color="#28a1db"/><stop offset="0.85" stop-color="#2896d4"/><stop offset="0.9" stop-color="#2985c9"/><stop offset="0.93" stop-color="#2a6fba"/><stop offset="0.97" stop-color="#2c54a9"/><stop offset="1" stop-color="#2e3594"/><stop offset="1" stop-color="#2e3192"/></linearGradient><linearGradient id="linear-gradient-2" x1="130.39" y1="56.01" x2="253.34" y2="143.49" xlink:href="#linear-gradient"/><linearGradient id="linear-gradient-3" x1="114.49" y1="78.36" x2="237.44" y2="165.84" xlink:href="#linear-gradient"/><linearGradient id="linear-gradient-4" x1="98.85" y1="100.34" x2="221.8" y2="187.83" xlink:href="#linear-gradient"/><linearGradient id="linear-gradient-5" x1="78.19" y1="129.38" x2="201.14" y2="216.86" xlink:href="#linear-gradient"/><linearGradient id="linear-gradient-6" x1="71.87" y1="138.25" x2="194.82" y2="225.74" xlink:href="#linear-gradient"/></defs><title>logo-dgbits</title><g id="Layer_2" data-name="Layer 2"><g id="Layer_1-2" data-name="Layer 1"><rect class="cls-1" width="828.77" height="205.28"/><path class="cls-2" d="M647.26,117.67l2.23-1v1Z"/><path class="cls-3" d="M409.87,108.58A40.73,40.73,0,0,1,393.13,125q-10.92,5.89-25.7,5.89H332.5V38.4h34.93q14.91,0,25.76,5.76a40.14,40.14,0,0,1,16.68,16.22,48.69,48.69,0,0,1,5.82,24.06A49.08,49.08,0,0,1,409.87,108.58Zm-24.07-4.65q7.26-6.93,7.26-19.49T385.8,65Q378.54,58,365.46,58H354.87v52.85h10.59Q378.54,110.87,385.8,103.93Z"/><path class="cls-3" d="M500.32,46a36.25,36.25,0,0,1,14,23H490.64a18.25,18.25,0,0,0-7.2-7.91,22,22,0,0,0-11.64-3q-10.59,0-17,7.13t-6.41,19.3q0,13.2,6.73,20.27t19.17,7.06A22.64,22.64,0,0,0,496.78,95H468.53V79h47v22.11a45.36,45.36,0,0,1-8.37,15,43.23,43.23,0,0,1-14.72,11.25,46.71,46.71,0,0,1-20.47,4.31q-14,0-24.46-6A40.74,40.74,0,0,1,431.32,109a51.38,51.38,0,0,1-5.69-24.45,51.42,51.42,0,0,1,5.69-24.46,40.85,40.85,0,0,1,16.09-16.68q10.39-6,24.26-5.95Q489.07,37.49,500.32,46Z"/><path class="cls-3" d="M596.78,91.38a22.19,22.19,0,0,1,4.9,14.25q0,11.91-7.91,18.58t-22.69,6.67H528V38.4h42q14.13,0,21.84,6.15t7.72,17.53q0,8.37-4.45,13.93a20.48,20.48,0,0,1-11.64,7.26A23.17,23.17,0,0,1,596.78,91.38ZM550.41,76.2h14.65q11.64,0,11.64-9.94t-11.9-9.94H550.41Zm28.38,26.29a9.73,9.73,0,0,0-3.27-7.78q-3.27-2.8-9.28-2.81H550.41v20.8h16Q578.79,112.7,578.79,102.49Z"/><path class="cls-3" d="M635.82,38.4v92.48H613.46V38.4Z"/><path class="cls-3" d="M717.7,38.4V56.19H692.59v74.69h-22.5V56.19H645.24V38.4Z"/><path class="cls-3" d="M789.83,118.32a26.21,26.21,0,0,1-11,9.81q-7.26,3.66-17.6,3.66-15.56,0-25.63-7.58t-11-21.19h23.81a12.55,12.55,0,0,0,3.72,8.24,11.46,11.46,0,0,0,8.18,3,9.49,9.49,0,0,0,6.8-2.36,8.23,8.23,0,0,0,2.49-6.28,8.13,8.13,0,0,0-2.29-5.88,18,18,0,0,0-5.69-3.86q-3.4-1.5-9.42-3.6a113.69,113.69,0,0,1-14.32-5.82,26.27,26.27,0,0,1-9.55-8.37q-4-5.55-4-14.45a24.33,24.33,0,0,1,4.18-14.26,26.63,26.63,0,0,1,11.58-9.22A42.16,42.16,0,0,1,757.07,37q15.43,0,24.52,7.33t10.27,20.14h-24.2a12.43,12.43,0,0,0-3.33-7.26,9.85,9.85,0,0,0-7.26-2.68,9.36,9.36,0,0,0-6.34,2.09,7.68,7.68,0,0,0-2.42,6.15,7.79,7.79,0,0,0,2.15,5.56A16.42,16.42,0,0,0,755.89,72q3.27,1.44,9.42,3.66a104.33,104.33,0,0,1,14.52,5.95,27.82,27.82,0,0,1,9.68,8.57q4.05,5.63,4,14.65A25.46,25.46,0,0,1,789.83,118.32Z"/><path class="cls-4" d="M530,157.29a4.91,4.91,0,0,1-2.07-1.52,3.61,3.61,0,0,1-.75-2.05.46.46,0,0,1,.45-.45h1.94a.67.67,0,0,1,.39.11,1,1,0,0,1,.27.3,2.19,2.19,0,0,0,1,1.21,3.76,3.76,0,0,0,2.08.5,4.09,4.09,0,0,0,2.26-.51,1.56,1.56,0,0,0,.75-1.38,1.3,1.3,0,0,0-.38-1,3.34,3.34,0,0,0-1.17-.67q-.78-.28-2.31-.69a9,9,0,0,1-3.7-1.59,3.44,3.44,0,0,1-1.18-2.82,3.74,3.74,0,0,1,.69-2.21,4.46,4.46,0,0,1,1.95-1.53,7.37,7.37,0,0,1,3-.55,7,7,0,0,1,3.07.62,5,5,0,0,1,2,1.55,3.42,3.42,0,0,1,.72,1.84.42.42,0,0,1-.13.31.39.39,0,0,1-.32.14h-2a.63.63,0,0,1-.64-.38,1.63,1.63,0,0,0-.83-1.14,3.3,3.3,0,0,0-1.8-.46,3.4,3.4,0,0,0-1.85.44,1.5,1.5,0,0,0-.67,1.31,1.39,1.39,0,0,0,.34,1,2.77,2.77,0,0,0,1.07.67,19.38,19.38,0,0,0,2.12.66,14.38,14.38,0,0,1,3,1,3.92,3.92,0,0,1,1.66,1.34,3.8,3.8,0,0,1,.53,2.08,3.88,3.88,0,0,1-.76,2.4,4.71,4.71,0,0,1-2.13,1.55,8.76,8.76,0,0,1-3.2.53A8.54,8.54,0,0,1,530,157.29Z"/><path class="cls-4" d="M542.57,156.58a5,5,0,0,1-1.48-3.55l0-.94,0-.94a4.91,4.91,0,0,1,1.5-3.53,5.43,5.43,0,0,1,3.87-1.3,5.36,5.36,0,0,1,3.84,1.3,4.91,4.91,0,0,1,1.5,3.53c0,.18,0,.49,0,.94s0,.77,0,.94a5,5,0,0,1-1.47,3.55,6.52,6.52,0,0,1-7.76,0ZM548.2,155a3.23,3.23,0,0,0,.65-2.07,8.28,8.28,0,0,0,0-.84,8.16,8.16,0,0,0,0-.83,3.26,3.26,0,0,0-.66-2.08,2.46,2.46,0,0,0-3.48,0,3.21,3.21,0,0,0-.67,2.08l0,.83,0,.84a3.18,3.18,0,0,0,.67,2.07,2.5,2.5,0,0,0,3.49,0Z"/><path class="cls-4" d="M555.41,157.5a.49.49,0,0,1-.15-.36v-8.32h-1.73a.49.49,0,0,1-.36-.15.48.48,0,0,1-.15-.36v-1.26a.51.51,0,0,1,.51-.51h1.73v-.86a3.71,3.71,0,0,1,1-2.89,4.54,4.54,0,0,1,3.16-.95H561a.51.51,0,0,1,.51.51v1.26a.51.51,0,0,1-.51.51h-1.37a1.48,1.48,0,0,0-1.18.41,2,2,0,0,0-.34,1.26v.75h2.67a.5.5,0,0,1,.37.15.49.49,0,0,1,.15.36v1.26a.48.48,0,0,1-.15.36.5.5,0,0,1-.37.15h-2.67v8.32a.48.48,0,0,1-.14.36.47.47,0,0,1-.37.15h-1.78A.49.49,0,0,1,555.41,157.5Z"/><path class="cls-4" d="M565.05,156.64a4.11,4.11,0,0,1-1-3v-4.83h-1.69a.51.51,0,0,1-.51-.51v-1.26a.49.49,0,0,1,.15-.36.48.48,0,0,1,.36-.15h1.69V143a.47.47,0,0,1,.15-.37.48.48,0,0,1,.36-.14h1.77a.48.48,0,0,1,.52.51v3.55h2.67a.51.51,0,0,1,.51.51v1.26a.48.48,0,0,1-.15.36.49.49,0,0,1-.36.15h-2.67v4.6a2.44,2.44,0,0,0,.32,1.39,1.17,1.17,0,0,0,1,.47h1.5a.48.48,0,0,1,.51.51v1.35a.48.48,0,0,1-.14.36.47.47,0,0,1-.37.15H568A3.93,3.93,0,0,1,565.05,156.64Z"/><path class="cls-4" d="M574.48,157.12l-3.06-9.92a.5.5,0,0,1,0-.19.44.44,0,0,1,.13-.33.39.39,0,0,1,.32-.14h1.62a.54.54,0,0,1,.37.13.53.53,0,0,1,.21.27l2.07,7,2.2-7a.76.76,0,0,1,.23-.33.55.55,0,0,1,.41-.14h1.09a.59.59,0,0,1,.42.14.57.57,0,0,1,.2.33l2.23,7,2.07-7a.54.54,0,0,1,.19-.27.56.56,0,0,1,.39-.13h1.6a.42.42,0,0,1,.33.14.45.45,0,0,1,.14.33l0,.19-3.06,9.92a.85.85,0,0,1-.25.39.63.63,0,0,1-.43.14h-1.41a.67.67,0,0,1-.71-.53l-2.2-6.71-2.22,6.71a.71.71,0,0,1-.73.53h-1.39A.68.68,0,0,1,574.48,157.12Z"/><path class="cls-4" d="M590.56,157.43a3.69,3.69,0,0,1-1.44-1.19,2.88,2.88,0,0,1-.52-1.65,2.82,2.82,0,0,1,1.18-2.35A7.1,7.1,0,0,1,593,151l2.93-.43v-.45a1.9,1.9,0,0,0-.47-1.39,2,2,0,0,0-1.49-.47,2.24,2.24,0,0,0-1.14.26,3.65,3.65,0,0,0-.69.52l-.35.35a.33.33,0,0,1-.32.26H589.8a.44.44,0,0,1-.33-.13.41.41,0,0,1-.14-.34,2.26,2.26,0,0,1,.52-1.21,4.05,4.05,0,0,1,1.55-1.17,5.89,5.89,0,0,1,2.59-.51,5.06,5.06,0,0,1,3.67,1.14,4,4,0,0,1,1.16,3v6.71a.52.52,0,0,1-.14.36.5.5,0,0,1-.38.15h-1.77a.51.51,0,0,1-.51-.51v-.84a3.63,3.63,0,0,1-1.33,1.13,4.67,4.67,0,0,1-2.13.43A4.54,4.54,0,0,1,590.56,157.43ZM595.2,155a3,3,0,0,0,.75-2.22v-.43l-2.13.35c-1.64.25-2.46.8-2.46,1.64a1.21,1.21,0,0,0,.56,1.06,2.41,2.41,0,0,0,1.36.37A2.51,2.51,0,0,0,595.2,155Z"/><path class="cls-4" d="M601.7,157.5a.49.49,0,0,1-.15-.36V147.07a.52.52,0,0,1,.15-.38.49.49,0,0,1,.36-.15h1.76a.51.51,0,0,1,.53.53V148a3.63,3.63,0,0,1,3.08-1.41h.9a.48.48,0,0,1,.37.14.5.5,0,0,1,.14.37v1.56a.52.52,0,0,1-.14.36.48.48,0,0,1-.37.15h-1.69a2.15,2.15,0,0,0-1.58.58,2.12,2.12,0,0,0-.58,1.58v5.86a.51.51,0,0,1-.51.51h-1.91A.49.49,0,0,1,601.7,157.5Z"/><path class="cls-4" d="M611.37,156.5a5.46,5.46,0,0,1-1.48-3.89l0-.54a6,6,0,0,1,1.4-4.21,5.71,5.71,0,0,1,7.8,0,6,6,0,0,1,1.37,4.11v.44a.5.5,0,0,1-.15.37.5.5,0,0,1-.38.15h-7.1v.17a3.31,3.31,0,0,0,.66,2,2,2,0,0,0,1.67.78,2.4,2.4,0,0,0,2-1,1.49,1.49,0,0,1,.3-.29,1,1,0,0,1,.36-.05h1.89a.57.57,0,0,1,.33.11.35.35,0,0,1,.13.3,2,2,0,0,1-.6,1.2,5,5,0,0,1-1.75,1.21,6.31,6.31,0,0,1-2.62.51A5.22,5.22,0,0,1,611.37,156.5Zm6.13-5.39v0a3.06,3.06,0,0,0-.64-2,2.32,2.32,0,0,0-3.43,0,3.1,3.1,0,0,0-.62,2v0Z"/><path class="cls-4" d="M628,157.5a.49.49,0,0,1-.15-.36V143.22a.51.51,0,0,1,.14-.38.47.47,0,0,1,.37-.15h5.73a6.2,6.2,0,0,1,4.06,1.22,4.34,4.34,0,0,1,1.47,3.55,4.21,4.21,0,0,1-1.47,3.49,6.31,6.31,0,0,1-4.06,1.19h-3.14v5a.48.48,0,0,1-.15.37.56.56,0,0,1-.39.14h-2A.49.49,0,0,1,628,157.5Zm6-7.76a2.72,2.72,0,0,0,1.89-.58,2.2,2.2,0,0,0,.65-1.73,2.33,2.33,0,0,0-.63-1.73,2.63,2.63,0,0,0-1.91-.62h-3.08v4.66Z"/><path class="cls-4" d="M641.84,157.5a.49.49,0,0,1-.15-.36V147.07a.52.52,0,0,1,.15-.38.49.49,0,0,1,.36-.15H644a.53.53,0,0,1,.39.15.52.52,0,0,1,.15.38V148a3.61,3.61,0,0,1,3.07-1.41h.9a.5.5,0,0,1,.38.14.49.49,0,0,1,.13.37v1.56a.52.52,0,0,1-.13.36.5.5,0,0,1-.38.15h-1.69a2,2,0,0,0-2.15,2.16v5.86a.53.53,0,0,1-.15.36.51.51,0,0,1-.37.15h-1.9A.49.49,0,0,1,641.84,157.5Z"/><path class="cls-4" d="M650.7,144.57a.49.49,0,0,1-.15-.36v-1.56a.53.53,0,0,1,.15-.39.51.51,0,0,1,.37-.15h2a.51.51,0,0,1,.54.54v1.56a.46.46,0,0,1-.16.36.54.54,0,0,1-.38.15h-2A.51.51,0,0,1,650.7,144.57Zm.09,12.93a.49.49,0,0,1-.15-.36V147.05a.47.47,0,0,1,.15-.37.48.48,0,0,1,.36-.14H653a.51.51,0,0,1,.51.51v10.09a.51.51,0,0,1-.51.51h-1.82A.49.49,0,0,1,650.79,157.5Z"/><path class="cls-4" d="M659.75,157.51a.89.89,0,0,1-.28-.39l-4-9.92a.5.5,0,0,1,0-.19.42.42,0,0,1,.14-.33.39.39,0,0,1,.31-.14h1.77a.56.56,0,0,1,.58.4l2.82,7.46,2.82-7.46a.59.59,0,0,1,.18-.27.52.52,0,0,1,.38-.13h1.77a.4.4,0,0,1,.32.14.44.44,0,0,1,.13.33.84.84,0,0,1,0,.19l-4,9.92a.8.8,0,0,1-.77.53h-1.62A.75.75,0,0,1,659.75,157.51Z"/><path class="cls-4" d="M669.35,157.43a3.73,3.73,0,0,1-1.43-1.19,2.92,2.92,0,0,1,.65-4A7.14,7.14,0,0,1,671.8,151l2.93-.43v-.45a1.9,1.9,0,0,0-.47-1.39,2.09,2.09,0,0,0-1.5-.47,2.17,2.17,0,0,0-1.13.26,3.44,3.44,0,0,0-.7.52l-.35.35a.33.33,0,0,1-.32.26h-1.67a.46.46,0,0,1-.47-.47,2.28,2.28,0,0,1,.53-1.21,4,4,0,0,1,1.55-1.17,5.84,5.84,0,0,1,2.58-.51,5.09,5.09,0,0,1,3.68,1.14,4,4,0,0,1,1.15,3v6.71a.52.52,0,0,1-.14.36.48.48,0,0,1-.37.15h-1.78a.51.51,0,0,1-.51-.51v-.84a3.51,3.51,0,0,1-1.32,1.13,4.72,4.72,0,0,1-2.14.43A4.57,4.57,0,0,1,669.35,157.43ZM674,155a3,3,0,0,0,.75-2.22v-.43l-2.14.35c-1.64.25-2.46.8-2.46,1.64a1.19,1.19,0,0,0,.57,1.06,2.41,2.41,0,0,0,1.36.37A2.54,2.54,0,0,0,674,155Z"/><path class="cls-4" d="M682.36,156.64a4.12,4.12,0,0,1-1-3v-4.83h-1.69a.49.49,0,0,1-.36-.15.48.48,0,0,1-.15-.36v-1.26a.51.51,0,0,1,.51-.51h1.69V143a.47.47,0,0,1,.15-.37.49.49,0,0,1,.37-.14h1.77a.48.48,0,0,1,.51.51v3.55h2.67a.5.5,0,0,1,.37.15.49.49,0,0,1,.15.36v1.26a.48.48,0,0,1-.15.36.5.5,0,0,1-.37.15h-2.67v4.6a2.53,2.53,0,0,0,.32,1.39,1.2,1.2,0,0,0,1,.47H687a.48.48,0,0,1,.37.14.5.5,0,0,1,.14.37v1.35a.52.52,0,0,1-.14.36.48.48,0,0,1-.37.15h-1.76A3.9,3.9,0,0,1,682.36,156.64Z"/><path class="cls-4" d="M690.47,156.5a5.47,5.47,0,0,1-1.49-3.89l0-.54a6,6,0,0,1,1.4-4.21,5.71,5.71,0,0,1,7.8,0,5.94,5.94,0,0,1,1.38,4.11v.44a.5.5,0,0,1-.15.37.53.53,0,0,1-.39.15h-7.09v.17a3.3,3.3,0,0,0,.65,2,2,2,0,0,0,1.68.78,2.42,2.42,0,0,0,2-1,1.27,1.27,0,0,1,.29-.29,1.09,1.09,0,0,1,.37-.05h1.88a.52.52,0,0,1,.33.11.36.36,0,0,1,.14.3,2,2,0,0,1-.61,1.2,5,5,0,0,1-1.74,1.21,6.36,6.36,0,0,1-2.63.51A5.18,5.18,0,0,1,690.47,156.5Zm6.12-5.39v0a3.05,3.05,0,0,0-.63-2,2.11,2.11,0,0,0-1.72-.76,2.07,2.07,0,0,0-1.71.76,3.1,3.1,0,0,0-.62,2v0Z"/><path class="cls-4" d="M707.08,157.5a.49.49,0,0,1-.15-.36V143.2a.48.48,0,0,1,.15-.37.53.53,0,0,1,.37-.14h2a.52.52,0,0,1,.38.14.51.51,0,0,1,.14.37v11.89h6.77a.53.53,0,0,1,.39.15.49.49,0,0,1,.15.36v1.54a.49.49,0,0,1-.15.36.53.53,0,0,1-.39.15h-9.29A.5.5,0,0,1,707.08,157.5Z"/><path class="cls-4" d="M719.16,144.57a.49.49,0,0,1-.15-.36v-1.56a.53.53,0,0,1,.15-.39.49.49,0,0,1,.36-.15h2a.52.52,0,0,1,.38.15.53.53,0,0,1,.15.39v1.56a.46.46,0,0,1-.16.36.53.53,0,0,1-.37.15h-2A.49.49,0,0,1,719.16,144.57Zm.08,12.93a.49.49,0,0,1-.15-.36V147.05a.47.47,0,0,1,.15-.37.49.49,0,0,1,.37-.14h1.81a.51.51,0,0,1,.37.15.53.53,0,0,1,.15.36v10.09a.53.53,0,0,1-.15.36.51.51,0,0,1-.37.15h-1.81A.5.5,0,0,1,719.24,157.5Z"/><path class="cls-4" d="M724.91,157.5a.49.49,0,0,1-.15-.36V147.05a.47.47,0,0,1,.15-.37.48.48,0,0,1,.36-.14H727a.48.48,0,0,1,.37.14.5.5,0,0,1,.14.37v.73a3.75,3.75,0,0,1,3.1-1.46,3.38,3.38,0,0,1,3.31,1.91,3.85,3.85,0,0,1,1.45-1.38,4.14,4.14,0,0,1,2-.53,3.73,3.73,0,0,1,2.86,1.2,5,5,0,0,1,1.11,3.48v6.14a.52.52,0,0,1-.14.36.48.48,0,0,1-.37.15h-1.78a.51.51,0,0,1-.51-.51v-6a2.77,2.77,0,0,0-.57-2,2,2,0,0,0-2.9,0,2.73,2.73,0,0,0-.59,1.94v6a.52.52,0,0,1-.14.36.48.48,0,0,1-.37.15h-1.8a.51.51,0,0,1-.51-.51v-6a2.73,2.73,0,0,0-.58-1.94,1.94,1.94,0,0,0-1.47-.61,1.91,1.91,0,0,0-1.42.61,2.68,2.68,0,0,0-.59,1.94v6a.52.52,0,0,1-.14.36.48.48,0,0,1-.37.15h-1.82A.49.49,0,0,1,724.91,157.5Z"/><path class="cls-4" d="M744.12,144.57a.49.49,0,0,1-.15-.36v-1.56a.53.53,0,0,1,.15-.39.49.49,0,0,1,.36-.15h2a.52.52,0,0,1,.38.15.53.53,0,0,1,.15.39v1.56a.46.46,0,0,1-.16.36.53.53,0,0,1-.37.15h-2A.49.49,0,0,1,744.12,144.57Zm.08,12.93a.49.49,0,0,1-.15-.36V147.05a.47.47,0,0,1,.15-.37.49.49,0,0,1,.37-.14h1.81a.5.5,0,0,1,.37.15.49.49,0,0,1,.15.36v10.09a.49.49,0,0,1-.15.36.5.5,0,0,1-.37.15h-1.81A.5.5,0,0,1,744.2,157.5Z"/><path class="cls-4" d="M751.83,156.64a4.16,4.16,0,0,1-1-3v-4.83h-1.69a.49.49,0,0,1-.36-.15.48.48,0,0,1-.15-.36v-1.26a.51.51,0,0,1,.51-.51h1.69V143a.47.47,0,0,1,.15-.37.48.48,0,0,1,.36-.14h1.78a.48.48,0,0,1,.37.14.5.5,0,0,1,.14.37v3.55h2.67a.51.51,0,0,1,.51.51v1.26a.48.48,0,0,1-.15.36.49.49,0,0,1-.36.15h-2.67v4.6a2.53,2.53,0,0,0,.32,1.39,1.18,1.18,0,0,0,1,.47h1.49a.48.48,0,0,1,.52.51v1.35a.52.52,0,0,1-.14.36.5.5,0,0,1-.38.15h-1.75A3.93,3.93,0,0,1,751.83,156.64Z"/><path class="cls-4" d="M759.94,156.5a5.46,5.46,0,0,1-1.48-3.89l0-.54a6,6,0,0,1,1.4-4.21,5.71,5.71,0,0,1,7.8,0A5.94,5.94,0,0,1,769,152v.44a.5.5,0,0,1-.53.52h-7.09v.17a3.24,3.24,0,0,0,.65,2,2,2,0,0,0,1.67.78,2.4,2.4,0,0,0,2-1,1.49,1.49,0,0,1,.3-.29,1,1,0,0,1,.37-.05h1.88a.57.57,0,0,1,.33.11.36.36,0,0,1,.14.3,2,2,0,0,1-.61,1.2,5,5,0,0,1-1.74,1.21,6.39,6.39,0,0,1-2.63.51A5.22,5.22,0,0,1,759.94,156.5Zm6.13-5.39v0a3,3,0,0,0-.64-2,2.09,2.09,0,0,0-1.72-.76,2.06,2.06,0,0,0-1.7.76,3,3,0,0,0-.62,2v0Z"/><path class="cls-4" d="M772.09,156.49a6,6,0,0,1-1.26-3.69l0-.71,0-.7a5.93,5.93,0,0,1,1.25-3.67,4.57,4.57,0,0,1,6.59,0V143a.47.47,0,0,1,.15-.37.5.5,0,0,1,.37-.14h1.86a.48.48,0,0,1,.37.14.5.5,0,0,1,.14.37v14.15a.52.52,0,0,1-.14.36.48.48,0,0,1-.37.15h-1.73a.5.5,0,0,1-.37-.15.49.49,0,0,1-.15-.36v-.79a4,4,0,0,1-3.39,1.51A4.08,4.08,0,0,1,772.09,156.49Zm5.93-1.71a3.46,3.46,0,0,0,.65-1.94,7.73,7.73,0,0,0,0-.81,8,8,0,0,0,0-.83,2.91,2.91,0,0,0-.66-1.82,2.19,2.19,0,0,0-1.79-.75c-1.53,0-2.34.94-2.44,2.82l0,.64,0,.65c.1,1.88.91,2.82,2.44,2.82A2.1,2.1,0,0,0,778,154.78Z"/><rect class="cls-5" x="331.63" y="138.41" width="174.19" height="19.18"/><path class="cls-6" d="M323.83,107.76h-6.77a3.73,3.73,0,0,0,0,7.45h6.77a3.73,3.73,0,1,0,0-7.45Z"/><path class="cls-7" d="M306.67,131.52H286.76V115.21h14.51a3.73,3.73,0,1,0,0-7.45H286.76V92h36.11a3.72,3.72,0,0,0,0-7.44H262.29a3.87,3.87,0,0,0-.48,0h-7.66v47.36H236.81q-10.92,0-16.13-5.2t-5.55-16.65q-.34-5-.34-13t.34-12.84q.36-11.09,6-16.38t16.56-5.29h49.08V47.18h19.91a3.72,3.72,0,1,0,0-7.44H286.59a4.39,4.39,0,0,0-1-1.88,4.1,4.1,0,0,0-3.12-1.3H236.81q-25.67,0-39.89,12.23a40.09,40.09,0,0,0-7.74,9,39.59,39.59,0,0,0-7.74-9q-14.22-12.23-39.88-12.23H96a4.07,4.07,0,0,0-3.12,1.3,4.46,4.46,0,0,0-1.21,3H80.74a3.72,3.72,0,0,0,0,7.44H91.61V62.41H69.94a3.73,3.73,0,0,0,0,7.45H91.61V85.63H37.55a3.72,3.72,0,0,0,0,7.44H91.61v13.07H69.94a3.73,3.73,0,0,0,0,7.45H91.61V127.2H80.74a3.72,3.72,0,1,0,0,7.44H91.61V149H72.37a3.71,3.71,0,0,0-3.72,3.72h0a3.71,3.71,0,0,0,3.72,3.72H92.7l.21.24a4.2,4.2,0,0,0,3,1.3h46.47q34.25,0,46.76-20.44Q201.72,158,235.94,158h46.48a4.17,4.17,0,0,0,1.33-.22,4,4,0,0,0,.92.12h6.77a3.73,3.73,0,0,0,0-7.45h-4.68V139h19.91a3.72,3.72,0,1,0,0-7.44ZM163.24,110.09q-.36,11.44-5.55,16.65t-16.13,5.2H124.22V62.58h16.47q10.92,0,16.56,5.29t6,16.38q.34,4.86.34,12.84T163.24,110.09Z"/><path class="cls-8" d="M63.58,48.26h6.78a3.72,3.72,0,0,0,0-7.44H63.58a3.72,3.72,0,0,0,0,7.44Z"/><path class="cls-9" d="M47.38,69.86h6.78a3.73,3.73,0,0,0,0-7.45H47.38a3.73,3.73,0,0,0,0,7.45Z"/><path class="cls-10" d="M57.88,109.87a3.72,3.72,0,0,0-3.72-3.73H47.38a3.73,3.73,0,0,0,0,7.45h6.78A3.72,3.72,0,0,0,57.88,109.87Z"/><path class="cls-11" d="M65,127.2H58.18a3.72,3.72,0,0,0,0,7.44H65a3.72,3.72,0,1,0,0-7.44Z"/><path class="cls-1" d="M65.23,57.36H98.82a3.72,3.72,0,1,0,0-7.44H65.23a3.72,3.72,0,0,0,0,7.44Z"/><path class="cls-1" d="M125.28,71.51H64.69a3.72,3.72,0,0,0,0,7.44h60.59a3.72,3.72,0,0,0,0-7.44Z"/><path class="cls-1" d="M102.54,98.45a3.71,3.71,0,0,0-3.72-3.72H38.24a3.72,3.72,0,1,0,0,7.44H98.82A3.72,3.72,0,0,0,102.54,98.45Z"/><path class="cls-1" d="M56.11,119a3.72,3.72,0,0,0,3.73,3.72H115a3.72,3.72,0,0,0,0-7.44H59.84A3.73,3.73,0,0,0,56.11,119Z"/><path class="cls-1" d="M118.8,136.3H58.22a3.72,3.72,0,1,0,0,7.44H118.8a3.72,3.72,0,1,0,0-7.44Z"/><path class="cls-1" d="M272.4,57.9H306a3.72,3.72,0,1,0,0-7.44H272.4a3.72,3.72,0,1,0,0,7.44Z"/><path class="cls-1" d="M322.18,94.73H261.6a3.72,3.72,0,0,0,0,7.44h60.58a3.72,3.72,0,0,0,0-7.44Z"/><path class="cls-1" d="M288,140.62H270.6a3.72,3.72,0,0,0,0,7.44H288a3.72,3.72,0,0,0,0-7.44Z"/><path class="cls-1" d="M295.19,119.8H277.8a3.73,3.73,0,1,0,0,7.45h17.39a3.73,3.73,0,0,0,0-7.45Z"/></g></g></svg>